HIERARCHY
ROOT Pelvis
{
	OFFSET 0.000000 0.000000 0.000000
	CHANNELS 6 Xposition Yposition Zposition Xrotation Yrotation Zrotation
	JOINT LeftUpLeg_virtual
	{
		OFFSET 0.000000 0.000000 0.000000
		CHANNELS 3 Xrotation Yrotation Zrotation
		JOINT LeftUpLeg
		{
			OFFSET 18.735201 -5.666702 -4.541200
			CHANNELS 3 Xrotation Yrotation Zrotation
			JOINT LeftLeg
			{
				OFFSET -0.021200 -31.938179 0.493100
				CHANNELS 3 Xrotation Yrotation Zrotation
				JOINT LeftFoot
				{
					OFFSET 0.021200 -31.938179 -4.336299
					CHANNELS 3 Xrotation Yrotation Zrotation
					JOINT LeftToeBase
					{
						OFFSET 0.943001 -26.722000 15.023500
						CHANNELS 3 Xrotation Yrotation Zrotation
						End Site
						{
							OFFSET 0 0 0
						}
					}
				}
			}
		}
	}
	JOINT RightUpLeg_virtual
	{
		OFFSET 0.000000 0.000000 0.000000
		CHANNELS 3 Xrotation Yrotation Zrotation
		JOINT RightUpLeg
		{
			OFFSET -18.735201 -5.666702 -4.541200
			CHANNELS 3 Xrotation Yrotation Zrotation
			JOINT RightLeg
			{
				OFFSET 0.018946 -31.938133 0.493100
				CHANNELS 3 Xrotation Yrotation Zrotation
				JOINT RightFoot
				{
					OFFSET -0.018946 -31.938126 -4.336299
					CHANNELS 3 Xrotation Yrotation Zrotation
					JOINT RightToeBase
					{
						OFFSET -0.943001 -26.722004 15.023500
						CHANNELS 3 Xrotation Yrotation Zrotation
						End Site
						{
							OFFSET 0 0 0
						}
					}
				}
			}
		}
	}
	JOINT Hips_virtual
	{
		OFFSET 0.000000 0.000000 0.000000
		CHANNELS 3 Xrotation Yrotation Zrotation
		JOINT Hips
		{
			OFFSET -0.000000 -0.000000 -0.000000
			CHANNELS 3 Xrotation Yrotation Zrotation
			JOINT Spine
			{
				OFFSET 0.000000 10.199997 -0.299500
				CHANNELS 3 Xrotation Yrotation Zrotation
				JOINT Spine1
				{
					OFFSET 0.000000 11.900002 -1.516600
					CHANNELS 3 Xrotation Yrotation Zrotation
					JOINT Spine2
					{
						OFFSET 0.000000 13.600006 -2.842500
						CHANNELS 3 Xrotation Yrotation Zrotation
						JOINT Neck_virtual
						{
							OFFSET 0.000000 0.000000 0.000000
							CHANNELS 3 Xrotation Yrotation Zrotation
							JOINT Neck
							{
								OFFSET 0.000000 9.624100 -2.890100
								CHANNELS 3 Xrotation Yrotation Zrotation
								JOINT Head
								{
									OFFSET 0.000000 14.068802 -1.351900
									CHANNELS 3 Xrotation Yrotation Zrotation
									End Site
									{
										OFFSET 0 0 0
									}
								}
							}
						}
						JOINT LeftShoulder_virtual
						{
							OFFSET 0.000000 0.000000 0.000000
							CHANNELS 3 Xrotation Yrotation Zrotation
							JOINT LeftShoulder
							{
								OFFSET 15.263000 10.923401 -0.547700
								CHANNELS 3 Xrotation Yrotation Zrotation
								JOINT LeftArm
								{
									OFFSET 25.438599 -2.830597 -13.032500
									CHANNELS 3 Xrotation Yrotation Zrotation
									JOINT LeftForeArm
									{
										OFFSET 29.960503 0.000000 0.000000
										CHANNELS 3 Xrotation Yrotation Zrotation
										JOINT LeftHand
										{
											OFFSET 27.849251 0.000000 0.000000
											CHANNELS 3 Xrotation Yrotation Zrotation
											End Site
											{
												OFFSET 0 0 0
											}
										}
									}
								}
							}
						}
						JOINT RightShoulder_virtual
						{
							OFFSET 0.000000 0.000000 0.000000
							CHANNELS 3 Xrotation Yrotation Zrotation
							JOINT RightShoulder
							{
								OFFSET -15.263000 10.923401 -0.547700
								CHANNELS 3 Xrotation Yrotation Zrotation
								JOINT RightArm
								{
									OFFSET -25.438599 -2.830597 -13.032500
									CHANNELS 3 Xrotation Yrotation Zrotation
									JOINT RightForeArm
									{
										OFFSET -29.960503 0.000000 0.000000
										CHANNELS 3 Xrotation Yrotation Zrotation
										JOINT RightHand
										{
											OFFSET -27.849251 0.000000 0.000000
											CHANNELS 3 Xrotation Yrotation Zrotation
											End Site
											{
												OFFSET 0 0 0
											}
										}
									}
								}
							}
						}
					}
				}
			}
		}
	}
}
MOTION
Frames: 5
Frame Time: 0.03333333
-5.663910 87.729401 6.123793 0.000000 0.000000 0.000000 -23.496494 -11.291721 2.892190 3.864415 19.731657 7.742729 45.510998 5.199584 -10.890941 -23.120440 16.125129 6.523150 0.000000 0.000000 0.000000 -25.001014 -10.025742 3.377949 19.980436 -10.584679 -5.741969 31.992709 -14.711500 2.311846 -32.202443 -24.544869 -6.229243 0.000000 0.000000 0.000000 -24.465273 -10.846386 3.131799 -0.920137 -0.186133 -0.055193 11.701711 -2.774865 -0.593874 4.420106 -4.131765 0.964947 0.000000 0.000000 0.000000 5.527697 -1.549668 0.608331 -1.804090 -0.893100 -0.863619 0.000000 0.000000 0.000000 6.933774 -2.257423 0.461718 -8.333540 -17.147241 -7.158062 -18.246651 -4.606248 -43.678230 -6.110948 -68.144825 -4.941798 0.000000 0.000000 0.000000 3.915852 -0.847076 -0.360057 6.050709 13.511683 7.955375 -13.190979 -6.717528 64.397284 12.731412 44.536990 -8.775581 0.000000 0.000000 0.000000 
-5.742964 87.749001 6.024853 0.000000 0.000000 0.000000 -23.577815 -12.586018 2.484251 3.281013 19.376799 8.368277 46.873372 4.761929 -10.390883 -22.747679 16.006391 6.618905 0.000000 0.000000 0.000000 -24.924605 -11.343596 2.967837 20.817211 -10.479719 -5.304835 30.454502 -15.492355 2.203349 -33.158700 -24.665094 -7.463392 0.000000 0.000000 0.000000 -24.539519 -12.160245 2.761074 -0.911346 -0.204754 -0.065210 11.807456 -2.889174 -0.659727 4.332841 -4.254997 1.002581 0.000000 0.000000 0.000000 5.551405 -1.609327 0.727904 -1.818348 -0.899141 -0.782656 0.000000 0.000000 0.000000 6.968900 -2.361635 0.362012 -8.374053 -17.246856 -7.197176 -18.284345 -4.790924 -43.664764 -6.074772 -67.759076 -4.921094 0.000000 0.000000 0.000000 3.759673 -0.926950 -0.276668 6.100583 13.474712 7.990048 -12.733455 -6.821957 64.443593 12.928358 45.182422 -9.017584 0.000000 0.000000 0.000000 
-6.086629 87.797455 6.021469 0.000000 0.000000 0.000000 -23.818125 -14.598933 1.724158 1.305624 18.788495 9.376394 49.531938 4.097685 -9.628117 -21.358642 15.727568 6.482883 0.000000 0.000000 0.000000 -24.863516 -13.460716 2.102369 21.329704 -10.865119 -4.656615 28.895102 -16.452396 2.628836 -34.287543 -25.035700 -8.311660 0.000000 0.000000 0.000000 -24.574367 -14.045418 2.015621 -0.910491 -0.175256 -0.071749 11.775758 -2.968057 -0.840723 4.222531 -4.345381 1.082105 0.000000 0.000000 0.000000 5.595649 -1.694069 0.840135 -1.799966 -0.890477 -0.679125 0.000000 0.000000 0.000000 6.958349 -2.469740 0.284506 -8.417590 -17.230860 -7.222333 -18.251193 -4.764597 -43.621304 -6.266301 -67.333132 -5.111603 0.000000 0.000000 0.000000 3.611818 -1.018232 -0.144987 6.122515 13.528617 8.024135 -12.220370 -6.796152 64.613528 13.250433 45.954828 -9.455506 0.000000 0.000000 0.000000 
-6.610452 87.879738 6.134060 0.000000 0.000000 0.000000 -24.146715 -16.881485 0.749401 -2.010631 17.902409 10.605920 53.062466 3.196476 -8.807295 -19.448964 15.093991 5.744126 0.000000 0.000000 0.000000 -24.857490 -15.917727 0.918560 21.371633 -11.155717 -3.949462 27.637609 -17.217917 3.347430 -34.971361 -25.479829 -8.532389 0.000000 0.000000 0.000000 -24.573293 -16.099130 1.038467 -0.911938 -0.113205 -0.070534 11.607145 -2.969579 -1.056718 4.086326 -4.374840 1.160326 0.000000 0.000000 0.000000 5.636074 -1.777400 0.913057 -1.749873 -0.871706 -0.583939 0.000000 0.000000 0.000000 6.896458 -2.554182 0.236656 -8.423295 -17.110759 -7.156591 -18.121631 -4.540890 -43.515726 -6.681349 -67.100175 -5.515060 0.000000 0.000000 0.000000 3.498920 -1.096557 -0.005161 6.098846 13.654940 8.061350 -11.824288 -6.663177 64.887630 13.628983 46.548757 -10.010391 0.000000 0.000000 0.000000 
-7.198800 87.913887 6.210899 0.000000 0.000000 0.000000 -24.447636 -19.187709 -0.340515 -6.007705 16.565734 11.781599 56.398549 2.011670 -8.048821 -17.826287 13.868575 3.990378 0.000000 0.000000 0.000000 -24.923623 -18.384486 -0.357404 21.224017 -10.853667 -3.402739 26.437483 -17.490006 3.942582 -35.137440 -25.785236 -8.238906 0.000000 0.000000 0.000000 -24.523767 -18.203503 -0.050118 -0.906389 -0.066314 -0.076023 11.362558 -2.913118 -1.246666 3.967734 -4.358859 1.207453 0.000000 0.000000 0.000000 5.669507 -1.835839 0.942146 -1.672471 -0.848186 -0.510133 0.000000 0.000000 0.000000 6.786770 -2.608819 0.205156 -8.366792 -16.981768 -6.972702 -17.871547 -4.179973 -43.342523 -7.282483 -67.154051 -6.111968 0.000000 0.000000 0.000000 3.430860 -1.144335 0.101160 6.031731 13.832339 8.136885 -11.550832 -6.476548 65.191273 14.021735 46.874830 -10.625673 0.000000 0.000000 0.000000 
